<svg class="svg-icon" style="width: 1em; height: 1em;vertical-align: middle;fill: currentColor;overflow: hidden;" viewBox="0 0 1024 1024" version="1.1" xmlns="http://www.w3.org/2000/svg"><path d="M512.512 582.26688m-397.5168 0a397.5168 397.5168 0 1 0 795.0336 0 397.5168 397.5168 0 1 0-795.0336 0Z" fill="#DDDCDC" /><path d="M512.512 184.75008c219.5456 0 397.5168 177.9712 397.5168 397.5168s-177.9712 397.5168-397.5168 397.5168-397.5168-177.9712-397.5168-397.5168 177.9712-397.5168 397.5168-397.5168m0-12.0832c-225.85344 0-409.6 183.74656-409.6 409.6s183.74656 409.6 409.6 409.6 409.6-183.74656 409.6-409.6-183.74656-409.6-409.6-409.6z" fill="#828084" /><path d="M512.512 949.57568c-214.46656 0-389.12-169.984-397.12768-382.40256-0.18432 5.0176-0.38912 10.0352-0.38912 15.09376 0 219.5456 177.9712 397.5168 397.5168 397.5168s397.5168-177.9712 397.5168-397.5168c0-5.05856-0.18432-10.07616-0.38912-15.09376-7.94624 212.52096-182.59968 382.40256-397.12768 382.40256z" fill="#FFFFFF" /><path d="M512.512 570.94144m-327.2704 0a327.2704 327.2704 0 1 0 654.5408 0 327.2704 327.2704 0 1 0-654.5408 0Z" fill="#A5A4A4" /><path d="M620.544 189.27616s15.11424-96.6656 60.416-128.38912 241.664-15.09376 84.60288 365.54752l-31.72352-89.10848s43.80672-111.77984 30.208-160.13312-57.344-55.88992-75.53024 75.53024z" fill="#FFFFFF" /><path d="M722.0224 50.176c68.46464 0 169.45152 71.33184 43.60192 376.25856l-31.72352-89.10848s43.80672-111.77984 30.208-160.13312c-5.44768-19.33312-15.70816-32.13312-27.2384-32.13312-17.28512 0-37.41696 28.81536-48.29184 107.66336L620.544 189.27616s15.11424-96.6656 60.416-128.38912c9.03168-6.30784 24.02304-10.71104 40.96-10.71104m0-12.0832c-18.7392 0-36.20864 4.7104-47.9232 12.9024-48.96768 34.28352-64.77824 132.28032-65.4336 136.41728l-0.98304 6.32832 4.77184 4.38272 67.97312 63.488 17.01888 15.89248 3.19488-23.08096c10.93632-79.38048 30.37184-97.23904 36.31104-97.23904 3.74784 0 11.07968 7.22944 15.60576 23.32672 10.24 36.4544-18.06336 122.38848-29.81888 152.43264l-1.65888 4.21888 1.51552 4.23936 31.72352 89.12896 10.5472 29.63456 12.00128-29.0816c83.8656-203.18208 65.39264-299.7248 35.16416-344.92416a106.61888 106.61888 0 0 0-89.9072-48.06656z" fill="#828084" /><path d="M742.95296 113.7664c-43.80672 16.60928-55.88992 105.73824-55.88992 105.73824s-20.64384-4.62848-45.2608-10.4448l46.77632 43.66336c18.1248-131.42016 61.93152-123.86304 75.53024-75.53024s-30.208 160.13312-30.208 160.13312l17.87904 50.21696c3.4816-10.07616 7.53664-21.17632 12.288-33.60768 71.02464-184.27904 22.69184-256.79872-21.11488-240.16896z" fill="#CACACA" /><path d="M778.24 459.14112c-14.99136-176.29184-144.13824-320.2048-321.20832-320.2048A321.2288 321.2288 0 0 0 135.74144 460.16512c0 43.3152 11.65312 83.47648 24.14592 122.28608 52.38784 162.69312 217.3952 270.848 387.072 239.39072C719.21664 789.9136 792.94464 632.832 778.24 459.14112z" fill="#FFFFFF" /><path d="M456.97024 138.93632c177.07008 0 306.21696 143.91296 321.20832 320.2048 14.76608 173.69088-58.96192 330.77248-231.17824 362.7008a324.87424 324.87424 0 0 1-59.10528 5.55008c-147.61984 0-281.74336-101.15072-328.00768-244.8384-12.4928-38.8096-24.14592-78.97088-24.14592-122.28608a321.2288 321.2288 0 0 1 321.2288-321.3312m0-12.0832c-183.78752 0-333.312 149.504-333.312 333.312 0 45.3632 12.288 87.12192 24.73984 125.99296 47.98464 149.0944 187.5968 253.21472 339.49696 253.21472a337.12128 337.12128 0 0 0 61.29664-5.65248c163.24608-30.24896 257.86368-177.68448 241.02912-375.6032-16.384-191.93856-156.4672-331.264-333.25056-331.264z" fill="#828084" /><path d="M536.576 781.06624C413.0816 802.28352 291.98336 759.808 208.896 679.936c75.32544 105.59488 205.23008 166.48192 338.04288 141.86496C686.8992 795.91424 761.856 687.37024 777.07264 554.43456 750.26432 668.34432 671.49824 757.76 536.576 781.06624z" fill="#CACACA" /><path d="M450.10944 796.28288c-175.2064 0-268.4928-135.31136-269.53728-136.88832a6.0416 6.0416 0 0 1 10.01472-6.73792c1.16736 1.72032 118.272 171.19232 336.5888 122.88a6.0416 6.0416 0 0 1 2.60096 11.79648 367.4112 367.4112 0 0 1-79.6672 8.94976zM566.23104 779.89888a6.144 6.144 0 0 1-1.3312-11.93984 227.0208 227.0208 0 0 0 86.528-45.50656 6.0416 6.0416 0 1 1 7.86432 9.15456 234.86464 234.86464 0 0 1-91.72992 48.14848 6.02112 6.02112 0 0 1-1.3312 0.14336z" fill="#828084" /><path d="M453.95968 457.15456m-271.89248 0a271.89248 271.89248 0 1 0 543.78496 0 271.89248 271.89248 0 1 0-543.78496 0Z" fill="#8B644B" /><path d="M453.95968 185.26208A271.89248 271.89248 0 1 1 182.0672 457.15456 271.89248 271.89248 0 0 1 453.95968 185.26208m0-12.0832C297.3696 173.17888 169.984 300.56448 169.984 457.15456s127.3856 283.97568 283.97568 283.97568 283.97568-127.3856 283.97568-283.97568S610.52928 173.17888 453.95968 173.17888z" fill="#613F1F" /><path d="M460.00128 704.88064a272.0768 272.0768 0 0 1-266.58816-325.632 271.91296 271.91296 0 1 0 527.11424 131.46112 271.99488 271.99488 0 0 1-260.52608 194.17088z" fill="#80543D" /><path d="M443.88352 203.38688A271.83104 271.83104 0 0 1 686.08 598.69184 271.89248 271.89248 0 1 0 211.70176 333.824a271.72864 271.72864 0 0 1 232.18176-130.43712z" fill="#80543D" /><path d="M629.67808 464.19968c-3.95264-18.82112-21.15584-101.21216-52.87936-55.88992s-43.80672 102.7072-80.05632 125.37856-63.488 48.3328-72.4992 72.4992c0 0 10.56768-55.88992-15.11424-95.17056s-40.77568-101.19168-37.74464-137.44128S375.9104 305.60256 327.68 335.872s-98.304 86.016-74.11712 170.61888 128.38912 132.93568 148.02944 191.87712a754.7904 754.7904 0 0 1 96.6656-34.816c57.40544-16.5888 157.10208-76.98432 131.42016-199.35232z" fill="#BC8E66" /><path d="M439.35744 562.3808s12.0832-27.19744 37.74464-45.32224 64.96256-58.90048 69.48864-107.23328c0 0-18.1248 28.672-39.26016 34.816-14.70464 4.1984-30.72 7.80288-41.22624 16.60928 3.39968-10.42432 9.44128-23.3472 20.0704-33.21856 21.15584-19.64032 58.90048-61.93152 42.2912-69.48864-11.91936-5.4272-30.72 3.29728-42.7008 18.61632 3.072-10.99776 7.20896-22.13888 12.4928-29.184 13.59872-18.1248 52.85888-49.84832 43.80672-78.5408s-24.1664-16.62976-31.72352-1.51552c0 0 4.52608-37.76512-19.64032-33.23904s-24.1664 33.23904-18.1248 64.96256c5.34528 27.97568 10.6496 68.87424 5.61152 90.56256a46.98112 46.98112 0 0 0-2.58048 7.61856s12.0832-51.36384-10.58816-66.47808-42.2912 4.54656-27.17696 48.35328 19.64032 63.488 18.1248 96.6656c0 0-3.03104-31.72352-19.64032-51.36384s-31.72352-27.17696-33.23904-64.94208c0 0-21.13536 36.2496-4.52608 86.016s40.79616 77.02528 40.79616 116.30592zM280.73984 606.208c-2.92864-2.94912-5.632-5.9392-8.33536-8.9088a82.30912 82.30912 0 0 0 8.33536 8.9088zM315.4944 295.0144c22.65088-19.61984 15.09376-52.85888-25.68192-24.1664C249.856 299.008 155.38176 468.33664 272.384 597.27872c-14.11072-17.1008-41.12384-59.65824-39.99744-134.59456 1.536-101.19168 60.47744-148.02944 83.10784-167.66976zM691.6096 409.82528c-19.64032-95.17056-58.92096-123.86304-67.97312-105.73824s33.21856 6.144 52.85888 138.9568c20.992 142.0288-89.10848 209.96096-89.10848 209.96096 67.97312-22.65088 123.86304-148.02944 104.22272-243.17952z" fill="#BC8E66" /><path d="M460.55424 321.536c1.49504 0.22528 2.84672 0.3072 4.46464 0.63488a16.384 16.384 0 0 0-4.46464-0.63488zM484.31104 373.88288a95.62112 95.62112 0 0 0-6.144 16.24064s2.56-6.88128 6.144-16.24064z" fill="#A7744D" /><path d="M338.14528 610.7136c-43.80672-45.30176-74.01472-93.65504-71.00416-157.0816s72.51968-134.4512 119.33696-101.21216c0 0-1.51552-33.23904-24.1664-37.76512s-129.90464 52.87936-120.832 152.55552 60.416 135.94624 80.05632 158.6176 72.4992 54.3744 80.05632 72.4992c0 0.04096-19.64032-42.2912-63.44704-87.61344zM647.80288 494.40768c-15.11424-116.30592-67.97312-143.50336-80.05632-67.97312 0 0 12.0832-30.208 31.72352-10.56768s31.72352 146.51392-43.80672 191.83616-146.5344 61.99296-154.07104 99.69664c0 0 12.0832-15.11424 74.01472-33.23904s187.2896-63.44704 172.19584-179.75296z" fill="#A7744D" /><path d="M483.14368 492.89216a178.3808 178.3808 0 0 0-36.2496 45.32224c-1.49504-25.68192-22.65088-69.48864-37.76512-98.18112s-6.144-80.05632-6.144-80.05632c-28.672 24.1664-21.13536 86.016 0 123.86304s31.72352 86.016 31.72352 86.016 22.67136-18.1248 33.23904-33.23904 9.05216-3.01056 40.77568-39.26016 37.76512-87.61344 37.76512-87.61344c-10.46528 36.33152-40.63232 63.52896-63.34464 83.1488z" fill="#A7744D" /><path d="M514.8672 353.93536c12.0832 13.59872-7.53664 31.72352-21.13536 48.3328s-28.672 39.28064-28.672 39.28064-13.57824-54.39488-18.1248-90.64448c-3.21536-25.8048 7.31136-29.3888 13.66016-29.32736-54.84544-8.192-38.912 46.63296-24.22784 71.68 15.11424 25.68192 19.64032 83.08736 19.64032 83.08736s24.1664-30.208 28.672-37.76512 33.23904-28.672 37.76512-34.816 27.19744-43.80672 25.68192-51.36384-45.34272-12.06272-33.25952 1.536z" fill="#A7744D" /><path d="M478.18752 390.12352c4.096-16.65024 4.95616-81.5104 1.9456-99.6352s1.51552-31.72352 15.11424-43.80672 22.65088 4.52608 22.65088 4.52608c-3.03104-49.82784-49.84832-48.3328-63.488-28.672s-4.52608 49.84832 12.0832 90.624 7.59808 93.63456 11.69408 76.96384zM526.9504 273.87904c-4.52608 28.672-15.09376 37.76512-24.1664 55.88992-5.40672 10.83392-13.12768 30.22848-18.432 44.11392 6.144-12.77952 17.34656-29.96224 36.59776-39.58784 33.23904-16.60928 51.36384-95.17056 10.58816-107.25376l-13.59872 24.1664s13.55776-6.0416 9.0112 22.67136z" fill="#A7744D" /><path d="M413.696 588.06272a115.22048 115.22048 0 0 0-15.11424-76.53376c-23.16288-39.28064-34.24256-47.32928-35.24608-72.4992s-21.13536-20.15232-8.04864 21.13536 53.3504 49.3568 58.40896 127.8976zM400.5888 676.67968s-29.20448-43.29472-56.40192-71.49568-64.45056-76.53376-64.45056-117.76 7.04512-10.07616 13.08672 13.08672 22.15936 62.44352 47.32928 87.61344 53.37088 66.39616 60.43648 88.55552zM436.8384 657.55136s28.18048-26.19392 58.40896-40.28416 62.42304-35.24608 68.46464-52.36736 18.1248-12.0832 4.096 12.0832-98.816 51.36384-130.9696 80.56832zM440.85248 605.184a118.90688 118.90688 0 0 1 51.36384-56.32c38.25664-21.13536 59.392-50.33984 64.45056-70.49216s14.09024-39.26016 21.13536-35.24608-8.04864 48.35328-24.1664 69.48864-66.4576 43.29472-77.53728 53.37088-28.18048 27.11552-35.24608 39.19872zM452.93568 483.328s-11.07968-47.32928-27.17696-60.416-13.08672 2.048-3.03104 19.12832 26.19392 57.344 26.19392 77.53728a63.488 63.488 0 0 1 19.12832-30.1056l15.09376-13.08672s36.27008-22.15936 27.19744-25.16992-43.29472 10.97728-57.40544 32.11264zM473.088 402.78016s5.03808-53.37088-8.06912-62.44352-3.01056 47.32928 4.096 80.56832c0 0 3.03104-8.06912 13.08672-17.12128s30.208-34.24256 23.16288-34.24256S479.232 391.70048 473.088 402.78016zM500.26496 296.0384s5.03808-34.24256-4.096-34.24256-5.03808 33.21856-9.07264 84.5824a177.2544 177.2544 0 0 1 18.1248-36.2496c11.1616-16.11776 14.19264-41.28768-4.95616-14.09024z" fill="#CBA988" /></svg>