<!DOCTYPE svg PUBLIC "-//W3C//DTD SVG 1.1//EN" "http://www.w3.org/Graphics/SVG/1.1/DTD/svg11.dtd">
<!-- Uploaded to: SVG Repo, www.svgrepo.com, Transformed by: SVG Repo Mixer Tools -->
<svg version="1.1" id="Layer_1" xmlns="http://www.w3.org/2000/svg" xmlns:xlink="http://www.w3.org/1999/xlink" viewBox="0 0 512 512" xml:space="preserve" width="64px" height="64px" fill="#000000">
<g id="SVGRepo_bgCarrier" stroke-width="0"/>
<g id="SVGRepo_tracerCarrier" stroke-linecap="round" stroke-linejoin="round"/>
<g id="SVGRepo_iconCarrier"> <path style="fill:#B3D8F4;" d="M117.484,168.049c12.958-48.173,56.942-83.632,109.207-83.632l0,0 c52.265,0,96.249,35.458,109.207,83.631"/> <path style="fill:#5AAAE7;" d="M335.897,168.049H226.691V84.412c26.134,0,50.195,8.868,69.345,23.757 C315.186,123.048,329.415,143.967,335.897,168.049z"/> <polygon style="fill:#FFFFFF;" points="74.976,189.775 113.611,248.671 113.611,504.147 339.771,504.147 339.771,189.775 "/> <rect x="226.693" y="189.775" style="fill:#C2DFF6;" width="113.08" height="314.372"/> <rect x="113.613" y="416.196" style="fill:#A5001E;" width="226.16" height="87.951"/> <rect x="226.693" y="416.196" style="fill:#830018;" width="113.08" height="87.951"/> <path style="fill:#A5001E;" d="M279.095,382.691h-105.75c-14.456,0-26.176-11.719-26.176-26.176l0,0h158.102l0,0 C305.271,370.972,293.551,382.691,279.095,382.691z"/> <path style="fill:#830018;" d="M305.271,356.515c0,7.225-2.932,13.779-7.664,18.512c-4.743,4.733-11.277,7.664-18.512,7.664h-52.404 v-26.176H305.271z"/> <path d="M105.759,251.016V512h241.865V181.922H60.433L105.759,251.016z M331.919,496.294H121.465v-72.245h210.454V496.294z M218.839,348.663h-79.522v7.853c0,18.764,15.266,34.029,34.029,34.029h105.751c18.763,0,34.029-15.265,34.029-34.029v-7.853h-78.58 V197.628h97.374v210.716H121.465V246.325l-31.946-48.698h129.32L218.839,348.663L218.839,348.663z M295.649,364.368 c-2.945,6.185-9.259,10.47-16.554,10.47h-105.75c-7.295,0-13.608-4.285-16.554-10.47H295.649z"/> <path d="M436.199,416.466c-13.845-7.615-22.446-22.162-22.446-37.963V205.855c0-25.177-20.483-45.659-45.66-45.659h-26.35 c-15.228-47.05-57.91-80.148-107.2-83.351V55.422c11.778-3.412,20.417-14.289,20.417-27.152c0-15.588-12.682-28.27-28.27-28.27 s-28.27,12.682-28.27,28.27c0,12.863,8.639,23.739,20.417,27.152v21.423c-49.29,3.203-91.973,36.302-107.2,83.351H75.447v15.706 h292.646c16.517,0,29.955,13.438,29.955,29.954v172.648c0,21.53,11.718,41.348,30.584,51.724l15.366,8.452l7.569-13.761 L436.199,416.466z M214.128,28.27c0-6.928,5.636-12.564,12.564-12.564c6.928,0,12.564,5.636,12.564,12.564 s-5.636,12.564-12.564,12.564C219.764,40.834,214.128,35.198,214.128,28.27z M128.283,160.196 c15.321-40.462,54.401-67.926,98.408-67.926s83.086,27.466,98.408,67.926H128.283z"/> </g>
</svg>